<svg width="1819" height="1796" viewBox="0 0 1819 1796" fill="none" xmlns="http://www.w3.org/2000/svg">
<path fill-rule="evenodd" clip-rule="evenodd" d="M1134.88 67.9408L1076.04 381.552L1018.2 496.755L1026.68 368.751L1134.88 67.9408ZM1524.81 290.471L1314.89 533.188L1206.68 604.575L1278.98 497.74L1524.81 290.471ZM1750.19 675.962L1445.53 782.304L1315.88 790.673L1432.56 733.564L1750.19 675.469V675.962ZM1750.19 1120.53L1432.56 1062.44L1315.88 1005.33L1445.53 1013.7L1750.19 1120.53ZM1524.81 1505.53L1278.98 1298.26L1206.68 1191.43L1314.89 1262.81L1524.81 1505.53ZM1134.88 1728.06L1027.18 1427.25L1018.7 1299.24L1076.04 1414.45L1134.88 1728.06ZM684.119 1728.06L742.958 1414.45L800.799 1299.24L792.322 1427.25L684.618 1728.06H684.119ZM294.191 1505.53L504.114 1262.81L612.317 1191.43L540.016 1298.26L294.191 1505.53ZM68.8108 1120.53L373.473 1014.19L503.117 1005.82L386.438 1062.93L68.8108 1121.02V1120.53ZM68.8108 675.469L386.438 733.564L503.117 790.673L373.473 782.304L68.8108 675.962V675.469ZM294.191 290.471L540.016 497.74L612.317 604.575L504.114 533.188L294.191 290.471ZM684.119 67.9408L791.823 368.751L800.3 496.755L742.459 381.552L683.621 67.9408H684.119ZM1024.68 34.9551L1023.19 222.531L990.278 292.441L976.815 216.13L1024.18 34.4627L1024.68 34.9551ZM1247.07 93.5417L1196.21 274.225L1146.35 333.796L1153.33 256.993L1247.07 94.034V93.5417ZM1446.52 207.269L1350.29 368.751L1286.46 413.553L1313.39 341.181L1446.52 207.269ZM1609.08 368.259L1473.45 499.709L1400.15 526.295L1445.53 463.277L1609.08 368.259ZM1724.26 564.696L1559.21 657.253L1481.43 664.146L1541.76 614.913L1724.76 564.696H1724.26ZM1783.6 784.273L1599.6 831.044L1522.32 817.751L1593.12 785.258L1783.1 783.781L1783.6 784.273ZM1783.6 1011.73L1593.62 1010.25L1522.81 977.757L1600.1 964.464L1784.1 1011.23L1783.6 1011.73ZM1724.26 1231.3L1541.26 1181.09L1480.93 1131.85L1558.72 1138.75L1723.76 1231.3H1724.26ZM1609.08 1428.23L1445.53 1333.21L1400.15 1270.2L1473.45 1296.78L1609.08 1428.23ZM1446.52 1588.73L1313.39 1454.82L1286.46 1382.45L1350.29 1427.25L1446.52 1588.73ZM1247.07 1702.46L1153.33 1539.5L1146.35 1462.7L1196.21 1522.27L1247.07 1702.95V1702.46ZM1024.68 1761.54L977.313 1579.87L990.776 1503.56L1023.69 1573.47L1025.18 1761.04L1024.68 1761.54ZM794.317 1761.54L795.812 1573.96L828.722 1504.05L842.185 1580.36L794.815 1762.03L794.317 1761.54ZM571.928 1702.46L622.788 1521.78L672.651 1462.2L665.67 1539.01L571.928 1701.97V1702.46ZM372.476 1588.73L468.712 1427.25L532.536 1382.45L505.61 1454.82L372.476 1588.73ZM209.923 1428.23L345.55 1296.78L418.849 1270.2L373.473 1333.21L209.923 1428.23ZM94.7396 1231.3L260.284 1138.75L338.071 1131.85L277.736 1181.09L94.7396 1231.3ZM35.4027 1011.73L219.397 964.956L296.684 978.249L225.879 1010.74L35.9012 1012.22L35.4027 1011.73ZM35.4027 784.273L225.38 785.75L296.186 818.243L218.898 831.536L34.9041 784.765L35.4027 784.273ZM94.7396 564.696L277.736 614.913L338.071 664.146L260.284 657.253L94.7396 564.696ZM209.923 368.259L373.473 463.277L418.849 526.295L345.55 499.709L209.923 368.259ZM372.476 207.269L505.61 341.181L532.536 413.553L468.712 368.751L372.476 207.269ZM571.928 93.5417L665.67 256.501L672.651 333.304L622.788 273.732L571.928 93.0494V93.5417ZM794.317 34.9551L841.686 216.623L828.223 292.933L795.314 223.023L793.818 35.4474L794.317 34.9551ZM909.5 161.482L934.93 479.524L909.5 605.559L884.07 479.524L909.5 161.482ZM536.525 259.947L719.522 522.849L761.407 644.453L675.643 547.957L536.525 259.947ZM263.276 529.741L554.974 667.1L652.706 751.78L529.544 710.424L263.276 529.741ZM163.052 898L485.166 872.891L612.815 898L485.166 923.109L163.052 898ZM263.276 1266.75L529.544 1086.07L652.706 1044.71L554.974 1129.39L263.276 1266.75ZM536.525 1536.05L675.643 1248.04L761.407 1151.55L719.522 1273.15L536.525 1536.05ZM909.5 1635.01L884.07 1316.97L909.5 1190.93L934.93 1316.97L909.5 1635.01ZM1282.47 1536.05L1099.48 1273.15L1057.59 1151.55L1143.36 1248.04L1282.47 1536.05ZM1555.72 1266.75L1264.03 1129.39L1166.29 1044.71L1289.46 1086.07L1555.72 1266.75ZM1655.95 898L1333.83 923.109L1206.18 898L1333.83 872.891L1655.95 898ZM1555.72 529.741L1289.46 710.424L1166.29 751.78L1264.03 667.1L1555.72 529.741ZM1282.47 259.947L1143.36 547.957L1057.59 644.453L1099.48 522.849L1282.47 259.947ZM812.267 540.08L848.169 607.528L844.678 659.223L815.259 616.39L812.267 540.08ZM909.5 0L929.944 75.818L909.5 119.143L889.056 75.818L909.5 0ZM644.229 636.083L709.549 676.946L732.486 723.225L685.117 700.578L644.229 636.083ZM454.75 120.62L510.596 176.252L514.585 223.515L475.194 196.438L454.251 120.62H454.75ZM546.996 801.997L624.284 804.951L667.665 833.998L615.309 837.444L546.996 801.997ZM121.666 449L198.454 469.678L225.879 508.571L178.011 504.633L121.666 449.492V449ZM546.996 994.003L615.309 958.556L667.665 962.002L624.284 991.049L546.996 994.003ZM0 898L76.7889 877.815L120.668 898L76.7889 918.185L0 898ZM644.229 1160.41L685.615 1095.91L732.486 1073.27L709.549 1120.04L644.229 1160.41ZM121.666 1347L178.011 1291.86L225.879 1287.92L198.454 1326.81L121.666 1347.49V1347ZM812.267 1255.92L815.259 1180.1L844.678 1137.27L848.169 1188.96L812.267 1256.41V1255.92ZM454.75 1675.87L475.692 1600.05L515.084 1572.98L511.095 1620.24L455.249 1675.87H454.75ZM1006.73 1255.92L970.831 1188.47L974.322 1136.78L1003.74 1179.61L1006.73 1255.92ZM909.5 1796L889.056 1720.18L909.5 1676.86L929.944 1720.18L909.5 1796ZM1174.77 1160.41L1109.45 1119.55L1086.51 1073.27L1133.88 1095.91L1174.77 1160.41ZM1364.25 1675.87L1308.4 1620.24L1304.41 1572.98L1343.81 1600.05L1364.75 1675.87H1364.25ZM1272 994.003L1194.72 991.049L1151.34 962.002L1203.69 958.556L1272 994.003ZM1697.33 1347L1620.55 1326.32L1593.12 1287.43L1640.99 1291.37L1697.33 1346.51V1347ZM1272 801.997L1203.69 837.444L1151.34 833.998L1194.72 804.951L1272 801.997ZM1819 898L1742.21 918.185L1698.33 898L1742.21 877.815L1819 898ZM1174.77 636.083L1133.38 700.578L1086.51 723.225L1109.45 676.454L1174.77 636.083ZM1697.33 449L1640.99 504.14L1593.12 508.079L1620.55 469.185L1697.33 448.508V449ZM1006.73 540.08L1003.74 615.898L974.322 658.73L970.831 607.036L1006.73 539.588V540.08ZM1364.25 120.62L1343.31 196.438L1303.92 223.515L1307.9 176.252L1363.75 120.62H1364.25Z" fill="url(#paint0_radial_491_92)"/>
<defs>
<radialGradient id="paint0_radial_491_92" cx="0" cy="0" r="1" gradientUnits="userSpaceOnUse" gradientTransform="translate(910 824) rotate(90.0295) scale(972 984.448)">
<stop offset="0.0576923" stop-color="#123A4A"/>
<stop offset="0.514423" stop-color="#1A5166"/>
<stop offset="1" stop-color="#123A4A"/>
</radialGradient>
</defs>
</svg>
