<svg width="1245" height="1245" viewBox="0 0 1245 1245" fill="none" xmlns="http://www.w3.org/2000/svg">
<path fill-rule="evenodd" clip-rule="evenodd" d="M776.76 47.097L736.488 264.494L696.9 344.354L702.701 255.621L776.76 47.097ZM1043.64 201.357L899.963 369.609L825.904 419.095L875.391 345.037L1043.64 201.357ZM1197.9 468.581L989.379 542.298L900.646 548.1L980.506 508.512L1197.9 468.24V468.581ZM1197.9 776.76L980.506 736.489L900.646 696.9L989.379 702.701L1197.9 776.76ZM1043.64 1043.64L875.391 899.963L825.904 825.905L899.963 875.391L1043.64 1043.64ZM776.76 1197.9L703.043 989.379L697.241 900.646L736.488 980.506L776.76 1197.9ZM468.24 1197.9L508.511 980.506L548.1 900.646L542.299 989.379L468.581 1197.9H468.24ZM201.357 1043.64L345.037 875.391L419.095 825.905L369.609 899.963L201.357 1043.64ZM47.097 776.76L255.621 703.043L344.354 697.241L264.494 736.83L47.097 777.101V776.76ZM47.097 468.24L264.494 508.512L344.354 548.1L255.621 542.298L47.097 468.581V468.24ZM201.357 201.357L369.609 345.037L419.095 419.095L345.037 369.609L201.357 201.357ZM468.24 47.097L541.957 255.621L547.759 344.354L508.17 264.494L467.899 47.097H468.24ZM701.336 24.2311L700.312 154.26L677.788 202.722L668.573 149.823L700.995 23.8898L701.336 24.2311ZM853.549 64.8438L818.738 190.095L784.609 231.39L789.387 178.15L853.549 65.1851V64.8438ZM990.062 143.68L924.194 255.621L880.51 286.678L898.939 236.509L990.062 143.68ZM1101.32 255.28L1008.49 346.402L958.322 364.831L989.379 321.147L1101.32 255.28ZM1180.16 391.452L1067.19 455.613L1013.95 460.391L1055.25 426.262L1180.5 391.452H1180.16ZM1220.77 543.664L1094.84 576.086L1041.94 566.871L1090.4 544.346L1220.43 543.322L1220.77 543.664ZM1220.77 701.336L1090.74 700.312L1042.28 677.788L1095.18 668.573L1221.11 700.995L1220.77 701.336ZM1180.16 853.549L1054.91 818.738L1013.61 784.609L1066.85 789.387L1179.81 853.549H1180.16ZM1101.32 990.062L989.379 924.194L958.322 880.51L1008.49 898.939L1101.32 990.062ZM990.062 1101.32L898.939 1008.49L880.51 958.322L924.194 989.379L990.062 1101.32ZM853.549 1180.16L789.387 1067.19L784.609 1013.95L818.738 1055.25L853.549 1180.5V1180.16ZM701.336 1221.11L668.914 1095.18L678.129 1042.28L700.654 1090.74L701.678 1220.77L701.336 1221.11ZM543.664 1221.11L544.688 1091.08L567.212 1042.62L576.427 1095.52L544.005 1221.45L543.664 1221.11ZM391.451 1180.16L426.262 1054.91L460.391 1013.61L455.613 1066.85L391.451 1179.81V1180.16ZM254.938 1101.32L320.806 989.379L364.49 958.322L346.061 1008.49L254.938 1101.32ZM143.68 990.062L236.509 898.939L286.678 880.51L255.621 924.194L143.68 990.062ZM64.8437 853.549L178.15 789.387L231.39 784.609L190.095 818.738L64.8437 853.549ZM24.2311 701.336L150.164 668.914L203.063 678.129L154.601 700.654L24.5723 701.678L24.2311 701.336ZM24.2311 543.664L154.26 544.688L202.722 567.212L149.823 576.427L23.8898 544.005L24.2311 543.664ZM64.8437 391.452L190.095 426.262L231.39 460.391L178.15 455.613L64.8437 391.452ZM143.68 255.28L255.621 321.147L286.678 364.831L236.509 346.402L143.68 255.28ZM254.938 143.68L346.061 236.509L364.49 286.678L320.806 255.621L254.938 143.68ZM391.451 64.8438L455.613 177.808L460.391 231.049L426.262 189.753L391.451 64.5025V64.8438ZM543.664 24.2311L576.086 150.164L566.871 203.063L544.346 154.601L543.322 24.5724L543.664 24.2311ZM622.5 111.941L639.905 332.41L622.5 419.778L605.095 332.41L622.5 111.941ZM367.22 180.197L492.471 362.443L521.139 446.739L462.438 379.848L367.22 180.197ZM180.197 367.22L379.848 462.438L446.739 521.139L362.442 492.471L180.197 367.22ZM111.599 622.5L332.068 605.095L419.437 622.5L332.068 639.905L111.599 622.5ZM180.197 878.121L362.442 752.87L446.739 724.202L379.848 782.903L180.197 878.121ZM367.22 1064.8L462.438 865.152L521.139 798.261L492.471 882.558L367.22 1064.8ZM622.5 1133.4L605.095 912.932L622.5 825.563L639.905 912.932L622.5 1133.4ZM877.78 1064.8L752.529 882.558L723.861 798.261L782.562 865.152L877.78 1064.8ZM1064.8 878.121L865.152 782.903L798.261 724.202L882.558 752.87L1064.8 878.121ZM1133.4 622.5L912.932 639.905L825.563 622.5L912.932 605.095L1133.4 622.5ZM1064.8 367.22L882.558 492.471L798.261 521.139L865.152 462.438L1064.8 367.22ZM877.78 180.197L782.562 379.848L723.861 446.739L752.529 362.443L877.78 180.197ZM555.95 374.387L580.522 421.143L578.133 456.978L557.997 427.286L555.95 374.387ZM622.5 0L636.492 52.5576L622.5 82.5905L608.507 52.5576L622.5 0ZM440.937 440.938L485.646 469.264L501.345 501.345L468.923 485.646L440.937 440.938ZM311.25 83.6143L349.474 122.179L352.204 154.942L325.243 136.172L310.909 83.6143H311.25ZM374.387 555.95L427.286 557.997L456.978 578.133L421.143 580.522L374.387 555.95ZM83.273 311.25L135.831 325.584L154.601 352.545L121.838 349.815L83.273 311.591V311.25ZM374.387 689.05L421.143 664.478L456.978 666.867L427.286 687.003L374.387 689.05ZM0 622.5L52.5575 608.507L82.5904 622.5L52.5575 636.493L0 622.5ZM440.937 804.404L469.264 759.696L501.345 743.997L485.646 776.419L440.937 804.404ZM83.273 933.75L121.838 895.526L154.601 892.796L135.831 919.757L83.273 934.091V933.75ZM555.95 870.613L557.997 818.055L578.133 788.363L580.522 824.198L555.95 870.954V870.613ZM311.25 1161.73L325.584 1109.17L352.545 1090.4L349.815 1123.16L311.591 1161.73H311.25ZM689.05 870.613L664.478 823.857L666.867 788.022L687.003 817.714L689.05 870.613ZM622.5 1245L608.507 1192.44L622.5 1162.41L636.492 1192.44L622.5 1245ZM804.062 804.404L759.354 776.077L743.655 743.997L776.077 759.696L804.062 804.404ZM933.75 1161.73L895.526 1123.16L892.796 1090.4L919.757 1109.17L934.091 1161.73H933.75ZM870.613 689.05L817.714 687.003L788.022 666.867L823.857 664.478L870.613 689.05ZM1161.73 933.75L1109.17 919.416L1090.4 892.455L1123.16 895.185L1161.73 933.409V933.75ZM870.613 555.95L823.857 580.522L788.022 578.133L817.714 557.997L870.613 555.95ZM1245 622.5L1192.44 636.493L1162.41 622.5L1192.44 608.507L1245 622.5ZM804.062 440.938L775.736 485.646L743.655 501.345L759.354 468.923L804.062 440.938ZM1161.73 311.25L1123.16 349.474L1090.4 352.204L1109.17 325.243L1161.73 310.909V311.25ZM689.05 374.387L687.003 426.945L666.867 456.637L664.478 420.802L689.05 374.046V374.387ZM933.75 83.6143L919.416 136.172L892.455 154.942L895.185 122.179L933.409 83.6143H933.75Z" fill="url(#paint0_radial_542_44)"/>
<defs>
<radialGradient id="paint0_radial_542_44" cx="0" cy="0" r="1" gradientTransform="matrix(-0.342221 673.797 -673.797 -0.351042 622.842 571.203)" gradientUnits="userSpaceOnUse">
<stop offset="0.0576923" stop-color="#123A4A"/>
<stop offset="0.514423" stop-color="#1A5166"/>
<stop offset="1" stop-color="#123A4A"/>
</radialGradient>
</defs>
</svg>
