<svg width="1440" height="1436" viewBox="0 0 1440 1436" fill="none" xmlns="http://www.w3.org/2000/svg">
<path fill-rule="evenodd" clip-rule="evenodd" d="M944.88 30.9408L886.042 344.552L828.201 459.755L836.678 331.751L944.88 30.9408ZM1334.81 253.471L1124.89 496.188L1016.68 567.575L1088.98 460.74L1334.81 253.471ZM1560.19 638.962L1255.53 745.304L1125.88 753.673L1242.56 696.564L1560.19 638.469V638.962ZM1560.19 1083.53L1242.56 1025.44L1125.88 968.327L1255.53 976.696L1560.19 1083.53ZM1334.81 1468.53L1088.98 1261.26L1016.68 1154.43L1124.89 1225.81L1334.81 1468.53ZM944.88 1691.06L837.176 1390.25L828.7 1262.24L886.042 1377.45L944.88 1691.06ZM494.119 1691.06L552.958 1377.45L610.799 1262.24L602.322 1390.25L494.618 1691.06H494.119ZM104.191 1468.53L314.114 1225.81L422.317 1154.43L350.016 1261.26L104.191 1468.53ZM-121.189 1083.53L183.473 977.189L313.117 968.819L196.438 1025.93L-121.189 1084.02V1083.53ZM-121.189 638.469L196.438 696.564L313.117 753.673L183.473 745.304L-121.189 638.962V638.469ZM104.191 253.471L350.016 460.74L422.317 567.575L314.114 496.188L104.191 253.471ZM494.119 30.9408L601.823 331.751L610.3 459.755L552.459 344.552L493.621 30.9408H494.119ZM834.683 -2.04493L833.187 185.531L800.278 255.441L786.815 179.13L834.185 -2.53728L834.683 -2.04493ZM1057.07 56.5417L1006.21 237.225L956.349 296.796L963.33 219.993L1057.07 57.034V56.5417ZM1256.52 170.269L1160.29 331.751L1096.46 376.553L1123.39 304.181L1256.52 170.269ZM1419.08 331.259L1283.45 462.709L1210.15 489.295L1255.53 426.277L1419.08 331.259ZM1534.26 527.696L1369.21 620.253L1291.43 627.146L1351.76 577.913L1534.76 527.696H1534.26ZM1593.6 747.273L1409.6 794.044L1332.32 780.751L1403.12 748.258L1593.1 746.781L1593.6 747.273ZM1593.6 974.727L1403.62 973.25L1332.81 940.757L1410.1 927.464L1594.1 974.235L1593.6 974.727ZM1534.26 1194.3L1351.26 1144.09L1290.93 1094.85L1368.72 1101.75L1533.76 1194.3H1534.26ZM1419.08 1391.23L1255.53 1296.21L1210.15 1233.2L1283.45 1259.78L1419.08 1391.23ZM1256.52 1551.73L1123.39 1417.82L1096.46 1345.45L1160.29 1390.25L1256.52 1551.73ZM1057.07 1665.46L963.33 1502.5L956.349 1425.7L1006.21 1485.27L1057.07 1665.95V1665.46ZM834.683 1724.54L787.313 1542.87L800.776 1466.56L833.686 1536.47L835.182 1724.04L834.683 1724.54ZM604.317 1724.54L605.812 1536.96L638.722 1467.05L652.185 1543.36L604.815 1725.03L604.317 1724.54ZM381.928 1665.46L432.788 1484.78L482.651 1425.2L475.67 1502.01L381.928 1664.97V1665.46ZM182.476 1551.73L278.712 1390.25L342.536 1345.45L315.61 1417.82L182.476 1551.73ZM19.923 1391.23L155.55 1259.78L228.849 1233.2L183.473 1296.21L19.923 1391.23ZM-95.2604 1194.3L70.2844 1101.75L148.071 1094.85L87.7365 1144.09L-95.2604 1194.3ZM-154.597 974.727L29.3969 927.956L106.684 941.249L35.879 973.742L-154.099 975.219L-154.597 974.727ZM-154.597 747.273L35.3804 748.75L106.186 781.243L28.8983 794.536L-155.096 747.765L-154.597 747.273ZM-95.2604 527.696L87.7365 577.913L148.071 627.146L70.2844 620.253L-95.2604 527.696ZM19.923 331.259L183.473 426.277L228.849 489.295L155.55 462.709L19.923 331.259ZM182.476 170.269L315.61 304.181L342.536 376.553L278.712 331.751L182.476 170.269ZM381.928 56.5417L475.67 219.501L482.651 296.304L432.788 236.732L381.928 56.0494V56.5417ZM604.317 -2.04493L651.686 179.623L638.223 255.933L605.314 186.023L603.818 -1.55257L604.317 -2.04493ZM719.5 124.482L744.93 442.524L719.5 568.559L694.07 442.524L719.5 124.482ZM346.525 222.947L529.522 485.849L571.407 607.453L485.643 510.957L346.525 222.947ZM73.2762 492.741L364.974 630.1L462.706 714.78L339.544 673.424L73.2762 492.741ZM-26.9483 861L295.166 835.891L422.815 861L295.166 886.109L-26.9483 861ZM73.2762 1229.75L339.544 1049.07L462.706 1007.71L364.974 1092.39L73.2762 1229.75ZM346.525 1499.05L485.643 1211.04L571.407 1114.55L529.522 1236.15L346.525 1499.05ZM719.5 1598.01L694.07 1279.97L719.5 1153.93L744.93 1279.97L719.5 1598.01ZM1092.47 1499.05L909.478 1236.15L867.593 1114.55L953.357 1211.04L1092.47 1499.05ZM1365.72 1229.75L1074.03 1092.39L976.294 1007.71L1099.46 1049.07L1365.72 1229.75ZM1465.95 861L1143.83 886.109L1016.18 861L1143.83 835.891L1465.95 861ZM1365.72 492.741L1099.46 673.424L976.294 714.78L1074.03 630.1L1365.72 492.741ZM1092.47 222.947L953.357 510.957L867.593 607.453L909.478 485.849L1092.47 222.947ZM622.267 503.08L658.169 570.528L654.678 622.223L625.259 579.39L622.267 503.08ZM719.5 -37L739.944 38.818L719.5 82.1426L699.056 38.818L719.5 -37ZM454.229 599.083L519.549 639.946L542.486 686.225L495.117 663.578L454.229 599.083ZM264.75 83.6195L320.596 139.252L324.585 186.515L285.194 159.438L264.251 83.6195H264.75ZM356.996 764.997L434.284 767.951L477.665 796.998L425.309 800.444L356.996 764.997ZM-68.3345 412L8.45442 432.678L35.879 471.571L-11.9894 467.633L-68.3345 412.492V412ZM356.996 957.003L425.309 921.556L477.665 925.002L434.284 954.049L356.996 957.003ZM-190 861L-113.211 840.815L-69.3318 861L-113.211 881.185L-190 861ZM454.229 1123.41L495.615 1058.91L542.486 1036.27L519.549 1083.04L454.229 1123.41ZM-68.3345 1310L-11.9894 1254.86L35.879 1250.92L8.45442 1289.81L-68.3345 1310.49V1310ZM622.267 1218.92L625.259 1143.1L654.678 1100.27L658.169 1151.96L622.267 1219.41V1218.92ZM264.75 1638.87L285.692 1563.05L325.084 1535.98L321.095 1583.24L265.249 1638.87H264.75ZM816.733 1218.92L780.831 1151.47L784.322 1099.78L813.741 1142.61L816.733 1218.92ZM719.5 1759L699.056 1683.18L719.5 1639.86L739.944 1683.18L719.5 1759ZM984.771 1123.41L919.45 1082.55L896.513 1036.27L943.883 1058.91L984.771 1123.41ZM1174.25 1638.87L1118.4 1583.24L1114.41 1535.98L1153.81 1563.05L1174.75 1638.87H1174.25ZM1082 957.003L1004.72 954.049L961.335 925.002L1013.69 921.556L1082 957.003ZM1507.33 1310L1430.55 1289.32L1403.12 1250.43L1450.99 1254.37L1507.33 1309.51V1310ZM1082 764.997L1013.69 800.444L961.335 796.998L1004.72 767.951L1082 764.997ZM1629 861L1552.21 881.185L1508.33 861L1552.21 840.815L1629 861ZM984.771 599.083L943.385 663.578L896.513 686.225L919.45 639.454L984.771 599.083ZM1507.33 412L1450.99 467.14L1403.12 471.079L1430.55 432.185L1507.33 411.508V412ZM816.733 503.08L813.741 578.898L784.322 621.73L780.831 570.036L816.733 502.588V503.08ZM1174.25 83.6195L1153.31 159.438L1113.92 186.515L1117.9 139.252L1173.75 83.6195H1174.25Z" fill="url(#paint0_radial_616_223)"/>
<defs>
<radialGradient id="paint0_radial_616_223" cx="0" cy="0" r="1" gradientUnits="userSpaceOnUse" gradientTransform="translate(720 787) rotate(90.0295) scale(972 984.448)">
<stop offset="0.0576923" stop-color="#2F95BE"/>
<stop offset="0.514423" stop-color="#1D637E"/>
<stop offset="1" stop-color="#04374B"/>
</radialGradient>
</defs>
</svg>
