<svg width="243" height="57" viewBox="0 0 243 57" fill="none" xmlns="http://www.w3.org/2000/svg">
<g clip-path="url(#clip0_616_148)">
<path fill-rule="evenodd" clip-rule="evenodd" d="M23.476 27.7552C23.476 27.7552 25.7944 28.9171 27.3102 30.2577C27.3102 30.2577 30.8471 26.5933 34.9191 24.7164C31.5307 27.785 30.5796 28.7383 27.221 33.5944C27.221 33.5944 25.4674 29.8704 23.476 27.7552ZM35.7513 1.74706L33.8788 11.8464L32.036 15.5704L32.3035 11.4294L35.7216 1.74706H35.7513ZM48.1455 8.89706L41.4877 16.7323L38.0399 19.0262L40.3285 15.5704L48.1455 8.89706ZM55.2788 21.3202L45.6191 24.7462L41.4877 25.0144L45.203 23.1673L55.2788 21.2904V21.3202ZM55.2788 35.6798L45.203 33.8029L41.4877 31.9558L45.6191 32.2239L55.2788 35.65V35.6798ZM48.1455 48.1029L40.3285 41.4296L38.0399 37.9737L41.4877 40.2677L48.1455 48.1029ZM35.7513 55.2529L32.3332 45.5706L32.0657 41.4296L33.9085 45.1535L35.781 55.2529H35.7513ZM21.4252 55.2529L23.2977 45.1535L25.1405 41.4296L24.873 45.5706L21.4549 55.2529H21.4252ZM9.06074 48.1029L15.7185 40.2677L19.1663 37.9737L16.8777 41.4296L9.06074 48.1029ZM1.89769 35.6798L11.5574 32.2537L15.6888 31.9856L11.9735 33.8327L1.89769 35.7096V35.6798ZM1.89769 21.3202L11.9735 23.1971L15.6888 25.0441L11.5574 24.776L1.89769 21.35V21.3202ZM9.06074 8.89706L16.8777 15.5704L19.1663 19.0262L15.7185 16.7323L9.06074 8.89706ZM21.4252 1.74706L24.8432 11.4294L25.1107 15.5704L23.268 11.8464L21.3955 1.74706H21.4252ZM32.2441 0.674565L32.1846 6.72227L31.1444 8.98644L30.7282 6.54352L32.2441 0.704354V0.674565ZM39.318 2.55144L37.713 8.3906L36.1377 10.2973L36.3755 7.82456L39.3477 2.55144H39.318ZM45.6488 6.21581L42.5874 11.4294L40.5663 12.8594L41.4282 10.5356L45.6488 6.21581ZM50.8205 11.3996L46.5107 15.63L44.1924 16.4939L45.6191 14.4681L50.8205 11.3996ZM54.4763 17.7452L49.2155 20.7244L46.7485 20.9627L48.6507 19.3837L54.4763 17.775V17.7452ZM56.3488 24.8356L50.5232 26.355L48.086 25.9379L50.3449 24.8952L56.3785 24.8356H56.3488ZM56.3488 32.1644L50.3152 32.1048L48.0563 31.0621L50.4935 30.645L56.3191 32.1644H56.3488ZM54.4763 39.2548L48.6507 37.646L46.7485 36.0671L49.2155 36.3054L54.4763 39.2846V39.2548ZM50.8205 45.6004L45.6191 42.5319L44.1924 40.506L46.5107 41.37L50.8205 45.6004ZM45.6488 50.7841L41.4282 46.4643L40.5663 44.1406L42.5874 45.5706L45.6488 50.7841ZM39.318 54.4485L36.3457 49.1754L36.108 46.7027L37.6832 48.6094L39.2882 54.4485H39.318ZM32.2441 56.3254L30.7282 50.4862L31.1444 48.0433L32.1846 50.3075L32.2441 56.3552V56.3254ZM24.9324 56.3254L24.9919 50.2777L26.0321 48.0135L26.4482 50.4564L24.9324 56.2956V56.3254ZM17.8882 54.4485L19.4932 48.6094L21.0685 46.7027L20.8307 49.1754L17.8585 54.4485H17.8882ZM11.5574 50.7841L14.6188 45.5706L16.6399 44.1406L15.778 46.4643L11.5574 50.7841ZM6.38574 45.6004L10.6955 41.37L13.0138 40.506L11.5871 42.5319L6.38574 45.6004ZM2.72991 39.2548L7.99074 36.2756L10.4577 36.0373L8.55547 37.6162L2.72991 39.225V39.2548ZM0.827688 32.1644L6.68296 30.645L9.12019 31.0621L6.8613 32.1048L0.827688 32.1644ZM0.827688 24.8356L6.8613 24.8952L9.12019 25.9379L6.68296 26.355L0.857412 24.8356H0.827688ZM2.72991 17.7452L8.55547 19.3539L10.4577 20.9329L7.99074 20.6946L2.72991 17.7154V17.7452ZM6.38574 11.3996L11.5871 14.4681L13.0138 16.4939L10.6955 15.63L6.38574 11.3996ZM11.5277 6.21581L15.7482 10.5356L16.6102 12.8594L14.5891 11.4294L11.5277 6.21581ZM17.8882 2.55144L20.8605 7.82456L21.0982 10.2973L19.523 8.3906L17.918 2.55144H17.8882ZM24.9324 0.674565L26.4482 6.51373L26.0321 8.95664L24.9919 6.69248L24.9324 0.644771V0.674565ZM28.5882 4.75602L29.3907 15.0044L28.5882 19.056L27.7857 15.0044L28.5882 4.75602ZM16.7291 7.91394L22.5546 16.4046L23.8921 20.3371L21.1577 17.2089L16.7291 7.91394ZM8.07991 16.6131L17.3532 21.0521L20.4741 23.7929L16.5507 22.4523L8.10963 16.6131H8.07991ZM4.89963 28.5L15.1241 27.6956L19.1663 28.5L15.1241 29.3044L4.89963 28.5ZM8.07991 40.3869L16.5507 34.5477L20.4741 33.2071L17.3532 35.9479L8.07991 40.3869ZM16.7291 49.086L21.1577 39.791L23.8921 36.6629L22.5546 40.5954L16.7291 49.0562V49.086ZM28.5882 52.2439L27.7857 41.9956L28.5882 37.9439L29.3907 41.9956L28.5882 52.2439ZM40.4474 49.086L34.6219 40.5954L33.2844 36.6629L36.0188 39.791L40.4474 49.086ZM49.1263 40.3869L39.853 35.9479L36.7321 33.2071L40.6555 34.5477L49.0966 40.3869H49.1263ZM52.3066 28.5L42.0821 29.3044L38.0399 28.5L42.0821 27.6956L52.3066 28.5ZM49.1263 16.6131L40.6555 22.4523L36.7321 23.7929L39.853 21.0521L49.1263 16.6131ZM40.4474 7.91394L36.0188 17.2089L33.2844 20.3371L34.6219 16.4046L40.4474 7.94373V7.91394ZM25.4971 16.9706L26.6266 19.1454L26.5077 20.8137L25.5863 19.4433L25.4971 17.0004V16.9706ZM28.5882 -0.45752L29.2421 1.9854L28.5882 3.3856L27.9344 1.9854L28.5882 -0.45752ZM20.1769 20.0391L22.2574 21.35L23.0005 22.8396L21.5144 22.0948L20.2066 20.0094H20.1769V20.0391ZM14.1432 3.4154L15.9266 5.2029L16.0455 6.72227L14.7971 5.82852L14.1432 3.3856V3.4154ZM17.0857 25.4016L19.523 25.491L20.9199 26.4146L19.2555 26.5337L17.0857 25.4016ZM3.56213 14.0212L5.99935 14.6766L6.89102 15.9279L5.37519 15.8087L3.59186 14.0212H3.56213ZM17.0857 31.5983L19.2555 30.4662L20.9199 30.5854L19.523 31.5089L17.0857 31.5983ZM-0.301758 28.5L2.13546 27.8446L3.53241 28.5L2.13546 29.1554L-0.301758 28.5ZM20.1769 36.9608L21.4846 34.8754L22.9707 34.1306L22.2277 35.6202L20.1471 36.931H20.1769V36.9608ZM3.56213 42.9787L5.34546 41.1912L6.8613 41.0721L5.96963 42.3233L3.53241 42.9787H3.56213ZM25.4971 40.0294L25.5863 37.5864L26.5077 36.1862L26.6266 37.8546L25.4971 40.0294ZM14.1432 53.5846L14.7971 51.1416L16.0455 50.2479L15.9266 51.7673L14.1432 53.5548V53.5846ZM31.6794 40.0294L30.5499 37.8546L30.6688 36.1862L31.5902 37.5864L31.6794 40.0294ZM28.5882 57.4575L27.9344 55.0146L28.5882 53.6143L29.2421 55.0146L28.5882 57.4575ZM37.0294 36.9608L34.9488 35.65L34.2057 34.1604L35.6919 34.9052L36.9996 36.9906H37.0294V36.9608ZM43.0332 53.5846L41.2499 51.7971L41.131 50.2777L42.3794 51.1714L43.0332 53.6143V53.5846ZM40.1205 31.5983L37.6832 31.5089L36.2863 30.5854L37.9507 30.4662L40.1205 31.5983ZM53.6144 42.9787L51.1771 42.3233L50.2855 41.0721L51.8013 41.1912L53.5846 42.9787H53.6144ZM40.1205 25.4016L37.9507 26.5337L36.2863 26.4146L37.6832 25.491L40.1205 25.4016ZM57.4782 28.5L55.041 29.1554L53.6441 28.5L55.041 27.8446L57.4782 28.5ZM37.0294 20.0391L35.7216 22.1246L34.2355 22.8694L34.9785 21.3798L37.0591 20.0689H37.0294V20.0391ZM53.6144 14.0212L51.831 15.8087L50.3152 15.9279L51.2069 14.6766L53.6441 14.0212H53.6144ZM31.6794 16.9706L31.5902 19.4135L30.6688 20.8137L30.5499 19.1454L31.6794 16.9706ZM43.0332 3.4154L42.3794 5.85831L41.131 6.75206L41.2499 5.23269L43.0332 3.44519V3.4154Z" fill="#F7AF22"/>
<path d="M214.709 9.1355H204.99V9.8505C206.714 9.8505 207.516 12.1147 206.595 13.5447L199.135 25.1932C198.748 25.8188 198.065 26.1763 197.351 26.1763C196.638 26.1763 196.876 26.1168 196.668 25.9976C196.46 25.8784 196.281 25.7295 196.162 25.5209L188.227 13.2467C187.275 11.787 188.316 9.8505 190.069 9.8505V9.1355H176.694V9.8505C179.28 9.8505 181.688 11.1613 183.085 13.3361L193.16 28.947C193.309 29.1853 193.368 29.4534 193.368 29.7215V42.8001C193.368 45.2728 191.377 47.239 188.94 47.239V47.954H201.839V47.239C199.372 47.239 197.411 45.243 197.411 42.8001V30.2876C197.411 29.6024 197.589 28.9172 197.975 28.3213L207.189 13.9617C208.854 11.3997 211.707 9.8505 214.739 9.8505V9.1355H214.709Z" fill="white"/>
<path d="M167.153 28.8278C171.195 28.8278 175.119 26.8318 177.199 23.3461C178.15 21.7374 178.685 19.9201 178.537 18.073C178.15 13.068 173.841 9.31425 168.847 9.10571H149.082V9.82072C150.301 9.82072 151.43 10.3272 152.203 11.1315C153.005 11.9359 153.511 13.0382 153.511 14.2597V42.7703C153.511 45.243 151.519 47.2093 149.082 47.2093V47.9243H161.981V47.2093C159.544 47.2093 157.553 45.2132 157.553 42.7703V28.8278C159.158 28.8278 160.703 29.4236 161.892 30.4961L176.278 44.4386C177.229 45.3026 176.961 47.239 175.654 47.239V47.9243H185.373V47.239C184.868 47.239 184.392 47.0603 184.006 46.7028L165.34 28.8278H167.213H167.153ZM157.523 28.1724V9.82072H165.191C169.828 9.82072 174.019 13.1574 174.495 17.8049C174.495 18.1326 174.554 18.4901 174.554 18.8178C174.554 20.6947 174.019 22.4226 173.098 23.9122C171.374 26.6828 168.193 28.1724 164.924 28.1724H157.523Z" fill="white"/>
<path d="M143.019 14.2895C143.019 11.8167 145.01 9.8505 147.448 9.8505V9.1355H134.578V9.8505C137.015 9.8505 139.007 11.8465 139.007 14.2895V24.4782C139.007 26.2657 137.075 28.232 135.262 28.232H119.687C117.904 28.232 115.942 26.2955 115.942 24.4782V14.2895C115.942 11.8465 117.933 9.8505 120.371 9.8505V9.1355H107.501V9.8505C109.938 9.8505 111.93 11.8465 111.93 14.2895V42.8001C111.93 45.243 109.938 47.239 107.501 47.239V47.954H120.371V47.239C117.933 47.239 115.942 45.243 115.942 42.8001V32.6709C115.942 30.8536 117.874 28.9172 119.687 28.9172H135.262C137.045 28.9172 139.007 30.8536 139.007 32.6709V42.8001C139.007 45.2728 137.015 47.2688 134.578 47.2688V47.9838H147.448V47.2688C144.981 47.2688 143.019 45.2728 143.019 42.8001V14.3192V14.2895Z" fill="white"/>
<path d="M104.261 18.0133C102.329 15.0639 99.5054 12.9189 96.7412 11.0718C95.8495 10.5058 94.9281 10.0291 93.9473 9.64184C89.6376 7.94372 84.7929 7.94372 80.4534 9.61205C79.4131 9.99935 78.4323 10.476 77.5406 11.0718C74.7765 12.9189 71.9529 15.0341 70.0209 18.0133C68.1187 20.9329 67.019 24.925 66.9893 28.5298C66.9893 32.1643 68.089 36.1266 70.0209 39.0462C71.9529 41.9956 74.7765 44.1406 77.5406 45.9579C78.462 46.5537 79.4429 47.0304 80.4534 47.4177C84.7929 49.0562 89.6079 49.086 93.9473 47.3879C94.9281 47.0006 95.8793 46.5239 96.7412 45.9579C99.5054 44.1406 102.329 41.9956 104.261 39.0462C106.163 36.1266 107.263 32.1346 107.293 28.5298C107.293 24.8952 106.193 20.9329 104.261 18.0133ZM101.051 37.3183C99.9809 40.1783 98.4354 42.8893 95.909 44.8258C95.8198 44.9152 95.7009 44.9748 95.6118 45.0641C90.559 48.6093 83.7823 48.6093 78.7295 45.0641C78.6404 44.9748 78.5215 44.9152 78.4323 44.8258C75.9059 42.8893 74.3604 40.1783 73.2904 37.3183C72.2501 34.4285 71.8043 31.4791 71.8043 28.5298C71.8043 25.5804 72.2501 22.631 73.2904 19.7412C74.3604 16.8812 75.9059 14.1702 78.4323 12.2337C78.5215 12.1443 78.6404 12.0848 78.7295 12.0252C83.7823 8.47997 90.559 8.47997 95.6118 12.0252C95.7009 12.0848 95.8198 12.1741 95.909 12.2337C98.4354 14.1702 99.9809 16.8812 101.051 19.7412C102.091 22.631 102.537 25.5804 102.537 28.5298C102.537 31.4791 102.091 34.4285 101.051 37.3183Z" fill="white"/>
<path d="M240.686 46.4049C239.943 45.8686 239.349 45.1238 238.992 44.2301L228.143 14.9151L226.003 9.16528H217.503V9.88028C219.316 9.88028 220.683 11.3699 220.683 13.068C220.683 14.7661 220.624 13.8128 220.475 14.1703L209.507 44.1109C208.824 46.0176 207.011 47.2986 204.96 47.2986V48.0136H214.471V47.388C214.471 47.4476 213.371 47.1199 213.342 47.1199C212.361 46.7028 211.588 45.809 211.291 44.7663C211.142 44.2599 211.172 43.7534 211.172 43.2469C211.172 42.7405 211.231 42.3532 211.291 41.9063C211.529 40.5061 212.064 39.1953 212.539 37.8547C212.926 36.7524 213.342 35.6799 213.728 34.5776C214.233 33.1774 214.739 31.7772 215.274 30.3769C215.452 29.9003 215.63 29.4236 215.809 28.9469H224.904C226.687 28.9469 228.708 30.4663 229.332 32.1644L229.689 33.1178L233.107 42.2936C233.999 44.7365 232.215 47.2986 229.629 47.2986V48.0136H243.272V47.2986C242.321 47.2986 241.399 47.0007 240.656 46.4942V46.4049H240.686ZM216.997 25.6699C217.562 24.1207 218.127 22.6013 218.692 21.0522C219.197 19.6817 219.702 18.3113 220.178 16.9707C220.564 15.928 220.921 14.9151 221.307 13.8724C221.515 13.3361 221.694 12.7999 221.902 12.2636C221.902 12.2338 221.902 12.1742 221.902 12.1444L225.944 23.0184C225.944 23.0184 226.271 23.8526 226.687 24.9847C227.252 26.6828 226.627 28.1426 224.844 28.1426H216.046C216.344 27.3084 216.671 26.4742 216.968 25.6401L216.997 25.6699Z" fill="white"/>
</g>
<defs>
<clipPath id="clip0_616_148">
<rect width="243" height="57" fill="white"/>
</clipPath>
</defs>
</svg>
